<?xml version="1.0" encoding="UTF-8" standalone="no"?>
<!-- Created with Inkscape (http://www.inkscape.org/) -->

<svg
   xmlns:dc="http://purl.org/dc/elements/1.1/"
   xmlns:cc="http://creativecommons.org/ns#"
   xmlns:rdf="http://www.w3.org/1999/02/22-rdf-syntax-ns#"
   xmlns:svg="http://www.w3.org/2000/svg"
   xmlns="http://www.w3.org/2000/svg"
   xmlns:sodipodi="http://sodipodi.sourceforge.net/DTD/sodipodi-0.dtd"
   xmlns:inkscape="http://www.inkscape.org/namespaces/inkscape"
   width="109.41008mm"
   height="86.849258mm"
   viewBox="0 0 387.67351 307.73359"
   id="svg2"
   version="1.1"
   inkscape:version="0.91 r13725"
   sodipodi:docname="map.svg">
  <defs
     id="defs4">
    <inkscape:path-effect
       effect="spiro"
       id="path-effect4157"
       is_visible="true" />
    <inkscape:path-effect
       effect="spiro"
       id="path-effect4153"
       is_visible="true" />
    <inkscape:path-effect
       effect="spiro"
       id="path-effect4149"
       is_visible="true" />
    <clipPath
       clipPathUnits="userSpaceOnUse"
       id="clipPath4172">
      <circle
         style="opacity:1;fill:#808080;fill-opacity:1;stroke:#000000;stroke-width:0;stroke-linecap:round;stroke-linejoin:round;stroke-miterlimit:4;stroke-dasharray:none;stroke-opacity:0"
         id="circle4174"
         cx="262.14285"
         cy="820.21936"
         r="225.71428" />
    </clipPath>
  </defs>
  <sodipodi:namedview
     id="base"
     pagecolor="#ffffff"
     bordercolor="#666666"
     borderopacity="1.0"
     inkscape:pageopacity="0.0"
     inkscape:pageshadow="2"
     inkscape:zoom="0.98994949"
     inkscape:cx="108.59816"
     inkscape:cy="163.65318"
     inkscape:document-units="px"
     inkscape:current-layer="layer1"
     showgrid="false"
     inkscape:window-width="1920"
     inkscape:window-height="1017"
     inkscape:window-x="-8"
     inkscape:window-y="-8"
     inkscape:window-maximized="1"
     fit-margin-top="0"
     fit-margin-left="0"
     fit-margin-right="0"
     fit-margin-bottom="0" />
  <metadata
     id="metadata7">
    <rdf:RDF>
      <cc:Work
         rdf:about="">
        <dc:format>image/svg+xml</dc:format>
        <dc:type
           rdf:resource="http://purl.org/dc/dcmitype/StillImage" />
        <dc:title></dc:title>
      </cc:Work>
    </rdf:RDF>
  </metadata>
  <g
     inkscape:label="Layer 1"
     inkscape:groupmode="layer"
     id="layer1"
     transform="translate(-168.75506,-145.93365)">
    <g
       id="g4176"
       transform="translate(68.571429,-448.57143)">
      <path
         inkscape:connector-curvature="0"
         inkscape:original-d="m 195.80094,650.4 -10.35714,-2.5 -7.14286,8.21429 1.78572,8.57143 -6.42857,5 3.57143,20.71429 12.14285,1.42857 -3.57143,16.42857 -12.14285,0 4.28571,9.64286 -10,4.64285 10.71429,7.85715 4.64285,0 -18.21428,11.07142 46.78571,-3.21428 -5,-7.14286 10,-10.71428 -9.64285,-4.64286 -2.85715,-17.5 -4.64285,-3.21429 -0.35715,-8.92857 -7.14285,-8.21429 12.5,-15 -16.42858,-2.5 z"
         inkscape:path-effect="#path-effect4149"
         id="path4147"
         d="m 195.80094,650.4 -10.35714,-2.5 -7.14286,8.21429 1.78572,8.57143 -6.42857,5 3.57143,20.71429 12.14285,1.42857 -3.57143,16.42857 -12.14285,0 4.28571,9.64286 -10,4.64285 10.71429,7.85715 4.64285,0 -18.21428,11.07142 46.78571,-3.21428 -5,-7.14286 10,-10.71428 -9.64285,-4.64286 -2.85715,-17.5 -4.64285,-3.21429 -0.35715,-8.92857 -7.14285,-8.21429 12.5,-15 -16.42858,-2.5 7.5,-10 z"
         style="fill:#00d674;fill-opacity:1;fill-rule:evenodd;stroke:#000000;stroke-width:1px;stroke-linecap:butt;stroke-linejoin:miter;stroke-opacity:0" />
      <path
         inkscape:connector-curvature="0"
         inkscape:original-d="m 158.30094,681.47143 10.35715,2.5 3.21428,10.35715 -7.5,1.07143 1.78572,10.71428 -6.42857,10 -18.21429,3.21429 -8.21429,-7.5 11.42858,-9.28572 -5,-7.5 z"
         inkscape:path-effect="#path-effect4153"
         id="path4151"
         d="m 158.30094,681.47143 10.35715,2.5 3.21428,10.35715 -7.5,1.07143 1.78572,10.71428 -6.42857,10 -18.21429,3.21429 -8.21429,-7.5 11.42858,-9.28572 -5,-7.5 18.57142,-13.57143 z"
         style="fill:#00d674;fill-opacity:1;fill-rule:evenodd;stroke:#000000;stroke-width:1px;stroke-linecap:butt;stroke-linejoin:miter;stroke-opacity:0" />
      <path
         clip-path="url(#clipPath4172)"
         inkscape:connector-curvature="0"
         inkscape:original-d="m 176.15809,821.47143 -56.42857,-15.71428 -18.92858,71.07143 22.5,5 6.78572,15 43.57143,-8.21429 16.42857,-34.64286 26.42857,-11.78571 -0.35714,-14.28571 25,1.42857 23.21428,-13.21429 9.64286,5.35714 2.14286,12.14286 18.92857,18.21429 23.21428,10.35714 5,10 -1.42857,9.28571 -30,5.71429 26.07143,14.28571 2.85714,-14.64285 7.14286,-2.5 7.5,-12.5 -6.78571,-7.14286 2.5,-8.21429 13.21428,7.5 -0.35714,-6.78571 -22.85714,-11.42857 -30,-28.21429 -1.07143,-10.35714 6.07143,-5 13.92857,6.07143 1.78571,11.42857 37.14286,18.92857 1.07143,9.28572 0.35714,10.35714 18.21429,16.78571 13.21428,-1.07143 12.14286,3.92858 4.28571,-3.57143 -12.85714,-6.07143 -6.42857,-16.07143 12.14286,0 0,-5.71429 13.21428,-4.64285 6.42857,4.28571 9.28572,-10 16.42857,-1.78571 -5,5.71428 -21.07143,6.42857 -1.07143,7.5 6.07143,1.07143 6.78572,17.85715 23.21428,10.71428 12.5,-5 -2.14285,-5.35714 13.92857,0.71428 6.07143,2.85715 11.42857,-6.07143 -1.42857,-59.64286 -10.35715,-4.28571 -27.14286,18.21428 -24.64285,5.35715 -6.42857,-8.57143 2.5,-15 1.07142,-14.28572 4.28572,0 -0.35714,-9.28571 4.28571,-12.14286 8.21429,-5.71428 6.42857,6.78571 7.85714,-4.28571 1.07143,4.64285 -6.42857,7.14286 9.28571,1.42857 1.78572,6.07143 12.14285,-13.92857 4.28572,-2.14286 -1.07143,-6.78571 -6.07143,6.78571 -6.42857,-9.28571 24.28571,-18.57143 -5,27.85714 8.57143,1.42857 -0.71428,-177.85714 -213.92858,-1.07143 -3.21428,10 -18.92857,12.5 -8.92857,9.28571 5,9.64286 -2.14286,8.57143 3.57143,9.64286 -2.85715,6.42857 10,4.28571 11.42858,-3.57143 8.21428,-13.57142 3.57143,6.42857 -0.71429,6.78571 11.07143,20.35714 -1.42857,6.07143 2.14286,5.71429 10.71428,0.35714 -1.78571,-5.35714 13.57143,-5.71429 -0.71429,-24.64285 10.71429,-11.42858 -5.35714,-11.42857 -6.42858,-2.85714 2.14286,-20.35714 11.07143,-15.35715 11.07143,-0.35714 -7.5,13.57143 6.42857,21.78571 13.57143,5.71429 18.57143,-10.71429 16.42857,1.42858 -9.28572,10.35714 -16.42857,1.78571 -13.21428,10.35715 -3.92857,8.92857 12.5,-5 6.07142,2.85714 -1.78571,11.07143 -11.07143,-5.71429 -6.42857,3.57143 1.07143,22.85715 -5,12.85714 -6.78572,1.78571 -2.85714,-6.42857 -26.78571,16.42857 -7.5,-7.85714 -9.64286,7.5 -12.85714,-12.14286 1.78571,-5.71428 16.78572,4.64285 -1.07143,-11.07142 -12.5,2.14285 2.14285,-20 -5.35714,1.07143 -3.92857,4.64286 -5.35714,0 -2.5,7.5 4.64285,16.42857 1.42858,11.42857 -2.5,6.07143 -5.35715,-6.07143 -14.64285,5 -7.85715,5.35714 -6.78571,14.28572 -13.92857,4.64286 -1.07143,8.92857 -20,5.35714 -5,-5.71429 -5,4.28572 2.5,8.92857 -22.85714,-3.21429 1.42857,12.14286 16.07143,9.28572 z"
         inkscape:path-effect="#path-effect4157"
         id="path4155"
         d="m 176.15809,821.47143 -56.42857,-15.71428 -18.92858,71.07143 22.5,5 6.78572,15 43.57143,-8.21429 16.42857,-34.64286 26.42857,-11.78571 -0.35714,-14.28571 25,1.42857 23.21428,-13.21429 9.64286,5.35714 2.14286,12.14286 18.92857,18.21429 23.21428,10.35714 5,10 -1.42857,9.28571 -30,5.71429 26.07143,14.28571 2.85714,-14.64285 7.14286,-2.5 7.5,-12.5 -6.78571,-7.14286 2.5,-8.21429 13.21428,7.5 -0.35714,-6.78571 -22.85714,-11.42857 -30,-28.21429 -1.07143,-10.35714 6.07143,-5 13.92857,6.07143 1.78571,11.42857 37.14286,18.92857 1.07143,9.28572 0.35714,10.35714 18.21429,16.78571 13.21428,-1.07143 12.14286,3.92858 4.28571,-3.57143 -12.85714,-6.07143 -6.42857,-16.07143 12.14286,0 0,-5.71429 13.21428,-4.64285 6.42857,4.28571 9.28572,-10 16.42857,-1.78571 -5,5.71428 -21.07143,6.42857 -1.07143,7.5 6.07143,1.07143 6.78572,17.85715 23.21428,10.71428 12.5,-5 -2.14285,-5.35714 13.92857,0.71428 6.07143,2.85715 11.42857,-6.07143 -1.42857,-59.64286 -10.35715,-4.28571 -27.14286,18.21428 -24.64285,5.35715 -6.42857,-8.57143 2.5,-15 1.07142,-14.28572 4.28572,0 -0.35714,-9.28571 4.28571,-12.14286 8.21429,-5.71428 6.42857,6.78571 7.85714,-4.28571 1.07143,4.64285 -6.42857,7.14286 9.28571,1.42857 1.78572,6.07143 12.14285,-13.92857 4.28572,-2.14286 -1.07143,-6.78571 -6.07143,6.78571 -6.42857,-9.28571 24.28571,-18.57143 -5,27.85714 8.57143,1.42857 -0.71428,-177.85714 -213.92858,-1.07143 -3.21428,10 -18.92857,12.5 -8.92857,9.28571 5,9.64286 -2.14286,8.57143 3.57143,9.64286 -2.85715,6.42857 10,4.28571 11.42858,-3.57143 8.21428,-13.57142 3.57143,6.42857 -0.71429,6.78571 11.07143,20.35714 -1.42857,6.07143 2.14286,5.71429 10.71428,0.35714 -1.78571,-5.35714 13.57143,-5.71429 -0.71429,-24.64285 10.71429,-11.42858 -5.35714,-11.42857 -6.42858,-2.85714 2.14286,-20.35714 11.07143,-15.35715 11.07143,-0.35714 -7.5,13.57143 6.42857,21.78571 13.57143,5.71429 18.57143,-10.71429 16.42857,1.42858 -9.28572,10.35714 -16.42857,1.78571 -13.21428,10.35715 -3.92857,8.92857 12.5,-5 6.07142,2.85714 -1.78571,11.07143 -11.07143,-5.71429 -6.42857,3.57143 1.07143,22.85715 -5,12.85714 -6.78572,1.78571 -2.85714,-6.42857 -26.78571,16.42857 -7.5,-7.85714 -9.64286,7.5 -12.85714,-12.14286 1.78571,-5.71428 16.78572,4.64285 -1.07143,-11.07142 -12.5,2.14285 2.14285,-20 -5.35714,1.07143 -3.92857,4.64286 -5.35714,0 -2.5,7.5 4.64285,16.42857 1.42858,11.42857 -2.5,6.07143 -5.35715,-6.07143 -14.64285,5 -7.85715,5.35714 -6.78571,14.28572 -13.92857,4.64286 -1.07143,8.92857 -20,5.35714 -5,-5.71429 -5,4.28572 2.5,8.92857 -22.85714,-3.21429 1.42857,12.14286 16.07143,9.28572 -3.57143,41.07142 z"
         style="fill:#00d674;fill-opacity:1;fill-rule:evenodd;stroke:#000000;stroke-width:1px;stroke-linecap:butt;stroke-linejoin:miter;stroke-opacity:0" />
    </g>
  </g>
</svg>
